# xmcd
#
# Track frame offsets: 
#        150
#        10841
#        25731
#        48024
#        65093
#        87476
#        112413
#        130541
#        145873
#        161345
#        180468
#        219138
#        237842
#        247915
#
# Disc length: 3475 seconds
#
# Revision: 0
# Processed by: cddbd v1.5.2PL0 Copyright (c) Steve Scherf et al.
# Submitted via: ExactAudioCopy v0.99pb4
#
DISCID=b00d910e
DTITLE=Various Artist - Just A Taste
DYEAR=2005
DGENRE=R&B
TTITLE0=Morris J/Intro
TTITLE1=Morris J/Mr DJ (Play That Song)
TTITLE2=Morris J/Sorry
TTITLE3=Morrsi J/Mr DJ (Play That Song) Dirty South Mix
TTITLE4=Morris J/Sweet Potato Pie
TTITLE5=Morris J/Sweet Potato Pie (Syrup Mix)
TTITLE6=Morris J/Haters
TTITLE7=Morris J/Get It Crunk
TTITLE8=Morris J/I Can't Be Mad
TTITLE9=Valenti/That Cat In ATL
TTITLE10=Valent/The Bubble Bath Song (Touch It)
TTITLE11=Valenti/California
TTITLE12=Valenti/Island And Indian (From India) Women
TTITLE13=Valenti/Riding Through Bear Creek (Irving), TX
EXTD=
EXTT0=
EXTT1=
EXTT2=
EXTT3=
EXTT4=
EXTT5=
EXTT6=
EXTT7=
EXTT8=
EXTT9=
EXTT10=
EXTT11=
EXTT12=
EXTT13=
PLAYORDER=
